<svg data-v-0dd9719b="" version="1.0" xmlns="http://www.w3.org/2000/svg" xmlns:xlink="http://www.w3.org/1999/xlink" width="100%" height="100%" viewBox="0 0 340.000000 250.000000" preserveAspectRatio="xMidYMid meet" color-interpolation-filters="sRGB" style="margin: auto;"> <rect data-v-0dd9719b="" x="0" y="0" width="100%" height="100%" fill="#fff" fill-opacity="1" class="background"></rect> <rect data-v-0dd9719b="" x="0" y="0" width="100%" height="100%" fill="url(#watermark)" fill-opacity="1" class="watermarklayer"></rect> <g data-v-0dd9719b="" fill="#333" class="icon-text-wrapper icon-svg-group iconsvg" transform="translate(82.55500030517578,74.67050170958944)"><g class="iconsvg-imagesvg" transform="translate(57.44499969482422,0)"><g><rect fill="#333" fill-opacity="0" stroke-width="2" x="0" y="0" width="60" height="60.18899343939972" class="image-rect"></rect> <svg x="0" y="0" width="60" height="60.18899343939972" filtersec="colorsb4726267110" class="image-svg-svg primary" style="overflow: visible;"><svg xmlns="http://www.w3.org/2000/svg" viewBox="-0.009979248046875 0.0451202392578125 369.4095764160156 370.57489013671875"><defs><linearGradient id="a1051d67b-88de-43a0-940f-f57526cbe622" x1="822.82" y1="264.46" x2="462.41" y2="557.3" gradientUnits="userSpaceOnUse"><stop offset="0" stop-color="#02a7ef"></stop><stop offset="1" stop-color="#005cc8"></stop></linearGradient><linearGradient id="bcec9a49f-2a86-4b6a-8175-f03041aff136" x1="916.97" y1="380.33" x2="556.55" y2="673.17" gradientUnits="userSpaceOnUse"><stop offset="0" stop-color="#02a7ef"></stop><stop offset="1" stop-color="#005cc8"></stop></linearGradient><linearGradient id="cb7a4b9b9-c47d-4839-83d1-85c5366c5157" x1="791.59" y1="226.02" x2="431.17" y2="518.86" gradientUnits="userSpaceOnUse"><stop offset="0" stop-color="#02a7ef"></stop><stop offset="1" stop-color="#005cc8"></stop></linearGradient></defs><path d="M498.37 437.22a186 186 0 0 0 51.17 107.31c122.64-134 279.21-194 279.21-194-140.04 2.13-262.87 52.55-330.38 86.69z" transform="translate(-498.24 -230)" fill="url(#a1051d67b-88de-43a0-940f-f57526cbe622)"></path><path d="M863.68 377.16a839 839 0 0 0-274.85 198.11 186.07 186.07 0 0 0 92.61 25.35c34.75-18.77 71.61-43.62 85.41-70 0 0-12.3 32.62-32.12 62.39a185.31 185.31 0 0 0 128.95-215.85z" transform="translate(-498.24 -230)" fill="url(#bcec9a49f-2a86-4b6a-8175-f03041aff136)"></path><path d="M842.77 322.62a185.29 185.29 0 0 0-276.29-51.88c39.39-12.55 70-12.31 70-12.31-59.76 21.62-100.93 54.76-117.72 69.91a186.71 186.71 0 0 0-20.53 66.08c105.42-54.53 226.05-79.13 344.54-71.8z" transform="translate(-498.24 -230)" fill="url(#cb7a4b9b9-c47d-4839-83d1-85c5366c5157)"></path></svg></svg> <!----></g></g> <g transform="translate(0,67.18899536132812)"><g data-gra="path-name" fill-rule="" class="tp-name iconsvg-namesvg"><g transform="scale(1)"><g><path d="M2.79-8.93Q3.53-4.28 7.04-1.91 10.55 0.46 15.67 0.46L15.67 0.46Q18.73 0.46 21.34-0.86 23.94-2.18 25.75-4.3 27.57-6.42 27.57-9.3L27.57-9.3Q27.57-12.55 25.61-14.43 23.66-16.32 21.36-17.15 19.06-17.99 15.02-18.97L15.02-18.97 14.09-19.25Q11.11-19.99 9.37-20.99 7.62-21.99 7.62-24.03L7.62-24.03Q7.62-26.64 9.76-27.89 11.9-29.15 14.83-29.15L14.83-29.15Q21.71-28.22 23.06-23.48L23.06-23.48 26.08-24.41Q25.57-28.4 22.38-30.71 19.2-33.01 14.64-33.01L14.64-33.01Q7.07-33.01 5.18-30.77 3.3-28.54 3.3-23.85L3.3-23.85Q3.3-21.06 5-19.32 6.69-17.57 8.72-16.71 10.74-15.85 14.04-14.92L14.04-14.92Q14.64-14.74 15.2-14.69L15.2-14.69Q17.57-14.18 19.22-13.62 20.87-13.06 22.08-11.97 23.29-10.88 23.29-9.11L23.29-9.11Q23.29-6.32 20.97-5 18.64-3.67 15.48-3.67L15.48-3.67Q12.41-3.67 9.53-5.39 6.65-7.11 5.81-9.86L5.81-9.86 2.79-8.93ZM53.14-13.95Q53.14-8.79 51.44-6.23 49.74-3.67 45.19-3.67L45.19-3.67Q40.58-3.67 39.05-6.32 37.52-8.97 37.52-13.95L37.52-13.95 37.52-32.54 33.01-32.54 33.01-13.95Q33.01-7.07 35.73-3.53 38.45 0 45.19 0L45.19 0Q51.74 0 54.46-3.88 57.18-7.76 57.18-13.95L57.18-13.95 57.18-32.54 53.14-32.54 53.14-13.95ZM68.94 0Q69.22 0 69.43-0.21 69.64-0.42 69.64-0.7L69.64-0.7 69.82-25.2 85.82 0 89.4 0Q89.67 0 89.88-0.21 90.09-0.42 90.09-0.7L90.09-0.7 90.09-32.54 85.35-32.54 85.35-7.16 69.36-32.54 65.08-32.54 65.08 0 68.94 0ZM102.78-28.68L110.27-28.68Q113.8-28.68 115.71-27.54 117.61-26.4 117.61-23.06L117.61-23.06Q117.61-19.76 115.68-18.41 113.76-17.06 110.27-17.06L110.27-17.06 102.78-17.06 102.78-28.68ZM102.78-13.16L110.27-13.16Q115.66-13.16 118.78-15.57L118.78-15.57Q121.89-17.94 121.89-23.06L121.89-23.06Q121.89-28.45 118.73-30.5L118.73-30.5Q115.48-32.54 109.9-32.54L109.9-32.54 98.27-32.54 98.27 0 102.09 0Q102.37 0 102.57-0.21 102.78-0.42 102.78-0.7L102.78-0.7 102.78-13.16ZM146.76 0Q147.04 0 147.25-0.21 147.46-0.42 147.46-0.7L147.46-0.7 147.46-3.67 131.28-3.67 131.28-32.54 126.54-32.54 126.54 0 146.76 0ZM176.98 0Q177.26 0 177.47-0.21 177.68-0.42 177.68-0.7L177.68-0.7 177.68-3.86 159.17-3.86 159.17-14.92 176-14.92Q176.28-14.92 176.49-15.13 176.7-15.34 176.7-15.62L176.7-15.62 176.7-18.73 159.17-18.73 159.08-28.73 176.23-28.73Q176.51-28.73 176.72-28.94 176.93-29.15 176.93-29.43L176.93-29.43 176.93-32.54 154.43-32.54 154.43 0 176.98 0Z" transform="translate(-2.7899999618530273, 33.0099983215332)"></path></g> <!----> <!----> <!----> <!----> <!----> <!----> <!----></g></g> <!----></g></g></svg>